2.5Hzlow3min_grf.mot
version=1
nRows=27
nColumns 19
inDegrees=yes
endheader
time	1_ground_force_vx	1_ground_force_vy	1_ground_force_vz	1_ground_force_px	1_ground_force_py	1_ground_force_pz	1_ground_torque_x	1_ground_torque_y	1_ground_torque_z	2_ground_force_vx	2_ground_force_vy	2_ground_force_vz	2_ground_force_px	2_ground_force_py	2_ground_force_pz	2_ground_torque_x	2_ground_torque_y	2_ground_torque_z
            0.005000	            1.761288	          463.240345	          -30.072325	           -0.247618	            0.006372	           -0.440699	            0.000021	            0.005608	           -0.000364	           -0.038239	          363.620693	           22.837153	           -0.211567	            0.005689	           -0.688952	            0.000034	           -0.323606	           -0.020324
            0.005500	            1.713233	          470.993106	          -30.359961	           -0.247616	            0.006370	           -0.440140	            0.001314	            0.361154	           -0.023280	           -0.858346	          370.244950	           23.471211	           -0.211253	            0.005689	           -0.688701	            0.001051	           -0.453555	           -0.028753
            0.006000	            1.573202	          477.845338	          -30.834666	           -0.247648	            0.006370	           -0.440320	            0.001498	            0.455141	           -0.029370	           -1.959820	          376.870430	           23.495324	           -0.211220	            0.005688	           -0.688556	            0.002476	           -0.476110	           -0.029682
            0.006500	            1.661798	          485.419463	          -31.490264	           -0.247696	            0.006369	           -0.440042	            0.001400	            0.409024	           -0.026534	           -3.296667	          383.861671	           23.990131	           -0.211519	            0.005688	           -0.688654	            0.003322	           -0.386810	           -0.024174
            0.007000	            1.568032	          492.451213	          -31.780886	           -0.247607	            0.006370	           -0.440213	            0.000665	            0.208931	           -0.013484	           -3.929539	          390.487944	           24.248685	           -0.211192	            0.005689	           -0.688612	            0.004115	           -0.408927	           -0.025394
            0.007500	            1.199693	          500.563264	          -31.791045	           -0.247777	            0.006367	           -0.439542	           -0.000048	           -0.019871	            0.001262	           -5.126748	          397.665842	           24.180952	           -0.211193	            0.005690	           -0.688914	            0.005437	           -0.421723	           -0.025644
            0.008000	            1.152455	          506.332346	          -31.903768	           -0.247770	            0.006369	           -0.440047	           -0.000080	           -0.035224	            0.002219	           -5.992479	          403.922486	           24.579075	           -0.211337	            0.005688	           -0.688460	            0.005750	           -0.387551	           -0.023583
            0.008500	            1.379866	          513.724100	          -32.056069	           -0.247525	            0.006368	           -0.439775	            0.000326	            0.121208	           -0.007563	           -6.768662	          411.285713	           24.605676	           -0.211468	            0.005687	           -0.688406	            0.008209	           -0.498831	           -0.029843
            0.009000	            2.112040	          519.673433	          -32.124093	           -0.247844	            0.006370	           -0.440120	            0.001773	            0.436206	           -0.026964	           -7.214717	          418.096195	           25.052520	           -0.211399	            0.005688	           -0.688571	            0.008856	           -0.513181	           -0.030750
            0.009500	            2.338620	          527.246737	          -32.596609	           -0.248065	            0.006368	           -0.439815	            0.002555	            0.576052	           -0.035614	           -7.893836	          424.538660	           25.169652	           -0.211622	            0.005687	           -0.688470	            0.010283	           -0.553012	           -0.032786
            0.010000	            2.932825	          533.737400	          -32.799545	           -0.248061	            0.006369	           -0.439942	            0.002774	            0.504885	           -0.031027	           -8.718095	          432.269223	           25.432228	           -0.211515	            0.005688	           -0.688807	            0.010627	           -0.526923	           -0.031001
            0.010500	            3.389175	          540.769195	          -33.091525	           -0.248180	            0.006368	           -0.439891	            0.001548	            0.247042	           -0.015117	           -9.161677	          438.344588	           25.454090	           -0.211549	            0.005687	           -0.688458	            0.010488	           -0.501810	           -0.029139
            0.011000	            3.754893	          548.880465	          -32.874228	           -0.248268	            0.006367	           -0.439438	            0.000184	            0.026902	           -0.001611	           -9.514073	          445.155682	           25.807037	           -0.211738	            0.005686	           -0.688359	            0.010855	           -0.507896	           -0.029444
            0.011500	            4.120306	          555.550593	          -32.892398	           -0.248434	            0.006367	           -0.439457	            0.000270	            0.036443	           -0.002158	           -9.635063	          452.705752	           25.740161	           -0.212196	            0.005686	           -0.688912	            0.012700	           -0.596726	           -0.033929
            0.012000	            4.945109	          561.318075	          -32.594576	           -0.248257	            0.006368	           -0.439811	            0.002565	            0.291132	           -0.016905	           -9.653611	          457.861433	           25.899343	           -0.211995	            0.005685	           -0.688445	            0.015329	           -0.727056	           -0.041127
            0.012500	            5.859871	          569.070825	          -32.838749	           -0.248552	            0.006367	           -0.439485	            0.005824	            0.565575	           -0.032637	           -9.679346	          465.041719	           26.347321	           -0.212107	            0.005685	           -0.688548	            0.014833	           -0.712632	           -0.040375
            0.013000	            6.820445	          575.742444	          -33.179386	           -0.248589	            0.006368	           -0.439686	            0.008026	            0.677474	           -0.039042	           -9.937707	          471.671689	           25.948722	           -0.211992	            0.005686	           -0.688676	            0.015039	           -0.713786	           -0.039268
            0.013500	            8.239596	          582.233659	          -33.476074	           -0.248676	            0.006367	           -0.439681	            0.008966	            0.633583	           -0.036428	           -9.818966	          477.748079	           26.251913	           -0.212407	            0.005684	           -0.688594	            0.014779	           -0.719078	           -0.039513
            0.014000	            8.787907	          589.625475	          -33.629172	           -0.248728	            0.006367	           -0.439486	            0.005627	            0.377532	           -0.021532	           -9.609431	          484.563440	           25.994556	           -0.212489	            0.005684	           -0.688579	            0.015082	           -0.760519	           -0.040798
            0.014500	            9.473634	          597.017392	          -33.828471	           -0.248690	            0.006366	           -0.439422	            0.004360	            0.274761	           -0.015569	           -9.865449	          490.638143	           26.391764	           -0.212786	            0.005682	           -0.688198	            0.012455	           -0.619403	           -0.033318
            0.015000	           10.205952	          604.047790	          -33.754285	           -0.248671	            0.006366	           -0.439290	            0.006101	            0.361064	           -0.020176	           -9.048818	          498.007790	           26.229975	           -0.212909	            0.005683	           -0.688725	            0.014188	           -0.780873	           -0.041128
            0.015500	           10.663182	          609.996751	          -33.775775	           -0.248877	            0.006366	           -0.439429	            0.009090	            0.519974	           -0.028791	           -8.597537	          502.796821	           26.387644	           -0.212898	            0.005681	           -0.688274	            0.014572	           -0.852194	           -0.044725
            0.016000	           11.761106	          617.029186	          -34.161060	           -0.249001	            0.006366	           -0.439386	            0.013978	            0.733337	           -0.040600	           -8.482887	          509.978953	           26.460137	           -0.213017	            0.005682	           -0.688700	            0.015382	           -0.924731	           -0.047979
            0.016500	           12.768613	          623.338452	          -34.090657	           -0.249014	            0.006367	           -0.439502	            0.015827	            0.772645	           -0.042256	           -7.709015	          516.242689	           26.529067	           -0.213284	            0.005681	           -0.688568	            0.014477	           -0.969474	           -0.049820
            0.017000	           14.140798	          630.372194	          -34.797619	           -0.249173	            0.006366	           -0.439311	            0.015265	            0.680480	           -0.037564	           -7.544172	          522.504059	           26.645183	           -0.213481	            0.005681	           -0.688691	            0.013217	           -0.915399	           -0.046681
            0.017500	           14.963679	          637.945146	          -35.134050	           -0.249213	            0.006364	           -0.438948	            0.011764	            0.501546	           -0.027622	           -7.054140	          529.504134	           26.529148	           -0.213803	            0.005680	           -0.688800	            0.011954	           -0.897290	           -0.044956
            0.018000	           15.191663	          642.812922	          -35.251313	           -0.249530	            0.006366	           -0.439437	            0.008993	            0.380507	           -0.020867	           -6.931556	          534.476791	           26.499901	           -0.213973	            0.005679	           -0.688812	            0.011967	           -0.922763	           -0.045752
